<?xml version="1.0" encoding="utf-8"?>
<!-- Generator: Adobe Illustrator 24.1.0, SVG Export Plug-In . SVG Version: 6.00 Build 0)  -->
<svg version="1.1" id="Capa_1" xmlns="http://www.w3.org/2000/svg" xmlns:xlink="http://www.w3.org/1999/xlink" x="0px" y="0px"
	 viewBox="0 0 571.1 571.1" style="enable-background:new 0 0 571.1 571.1;" xml:space="preserve">
<style type="text/css">
	.st0{fill:#FFFFFF;}
</style>
<g>
	<path class="st0" d="M181.9,364.9c0.9,0.1,1.7,0.1,2.6,0.1c27.6,0,79.5-26.5,109.4-99.4c9.5-23.2,10.1-41.3,1.7-53.8
		c-5.4-8.1-14.2-13.3-25.8-15.5c9.5-5.8,20-10.3,24.8-12.1c9.2-2.7,15.7-1.8,20.1,3.1c8.7,9.8,8.1,32.5,7.1,40.4
		c-0.5,4.1,1.9,8.1,5.8,9.6s8.3,0.2,10.7-3.2c17.1-23.9,14-53.8,13.9-54.9c-3.8-42.8-28.9-49.2-43.5-49.2
		c-16.2,0-36.2,7.3-59.5,21.6c-19.2,11.8-74.5,62-73.7,110.8c0.4,22.9,13.4,36.3,35.7,36.8c-9.2,7.9-18.3,11.2-28.1,9.6
		c-22.5-3.8-17.1-38.3-16.9-39.7c0.8-4.6-2-9-6.4-10.3c-4.5-1.3-9.2,0.9-11,5.1c-13,29.9-13.3,58.8-0.9,79.2
		C156.2,356,168.5,364,181.9,364.9z"/>
	<path class="st0" d="M519.1,66.4c-21.9-19.5-49.5-29.3-81.9-29.3c-85.8,0-177.2,68.8-181,71.7c-3.9,3-4.8,8.8-1.9,12.8
		c2.9,4,8.4,5.6,12.5,2.8l3-1c24.9-16,56.3-26.6,86.3-22.3c12.3,1.8,24.7,7.8,31.1,18.5c6.3,10.4,6.2,23.3,5,35.4
		c-6.7,67.7-41.9,129.5-90.4,176.3c-30.4,29.3-72.9,61.9-116.9,64.8c-20.5,1.3-35.4-3.4-45.3-13.9c-14.9-15.8-13.6-40.1-13.6-40.3
		c0.2-3.8-1.9-7.4-5.4-8.9c-3.4-1.6-7.5-0.9-10.2,1.9c-16.5,16.5-20.3,49.2-20.6,73.5c-48-86.1,34-222.3,34.9-223.8
		c2.1-3.5,1.7-8-1.1-11s-7.2-3.8-10.9-1.9C53.9,201.9,12.6,315.1,10.9,320C-8.4,375.8-1.7,436.5,28.3,478.6
		C53.8,514.3,94.1,534,141.8,534c44.1,0,93.7-16.1,147.4-47.8C456.8,387.3,494.5,239.1,503,178.7c41.5,83.8-28.2,203.1-29,204.3
		c-2.3,3.8-1.5,8.8,1.9,11.6c3.4,2.9,8.4,2.9,11.8,0c47.4-40,82.4-122.1,83.4-195.4C571.8,143.3,553.9,97.4,519.1,66.4z"/>
</g>
</svg>
