<?xml version="1.0" encoding="utf-8"?>
<!-- Generator: Adobe Illustrator 24.1.0, SVG Export Plug-In . SVG Version: 6.00 Build 0)  -->
<svg version="1.1" id="Capa_1" xmlns="http://www.w3.org/2000/svg" xmlns:xlink="http://www.w3.org/1999/xlink" x="0px" y="0px"
	 viewBox="0 0 572.4 572.4" style="enable-background:new 0 0 572.4 572.4;" xml:space="preserve">
<style type="text/css">
	.st0{fill:#FFFFFF;}
</style>
<g>
	<g>
		<path class="st0" d="M363.7,70.8c-4.5,0-9.2,0.3-14.5,1c-22.8-34.3-60.6-54.7-101.7-54.7c-65.2,0-118.9,51.8-122,116.4
			c-1.1-0.1-2.1-0.1-3.2-0.1C54.8,133.4,0,188.2,0,255.6c0,30.6,11.3,59.7,32,82.3c-4.4,13.8-6.6,28-6.6,42.2
			c0,76.9,62.5,139.4,139.4,139.4c19.6,0,38.7-4.1,56.8-12.2c25.4,30.5,62.3,48,102,48c65.4,0,121.1-48,131-112.4
			c66.4-5.3,117.9-60.6,117.9-127.6c0-55.2-34.6-103.4-86.5-121.2c0-0.3,0-0.7,0-1C486,125.6,431.1,70.8,363.7,70.8z M101.7,286.3
			c2.3-62.5,28.3-107,77.3-132.6c38.3-20,78.9-21.6,90.5-21.6c2.3,0,3.5,0.1,3.5,0.1c1.3,0.1,2.4,1.1,2.5,2.4c0.1,1.3-0.7,2.5-2,2.9
			c-28.9,7.9-53,44.3-53.3,44.7c-33.2,47.6-28.5,88.7-18.7,114.7c16.4,43.7,57.6,74.8,89.8,82.8c10,2.5,20.2,3.8,30.2,3.8
			c30.3,0,53.4-11.4,63.2-16.3c3.9-1.9,5.5-2.7,6.9-2.7c1.5,0,3,1.5,3,3c0,5-28.1,52.7-67.3,68.1c-17.8,7.7-40.5,11.9-63.7,11.9
			C189.7,447.5,108.2,405.1,101.7,286.3z M343.2,113.8c0-1.3,0.7-2.4,1.8-3c1.1-0.6,2.5-0.5,3.5,0.3l24.6,18.4l29.1-9.9
			c1.2-0.4,2.5-0.1,3.4,0.8c0.9,0.9,1.2,2.2,0.8,3.4l-9.9,29.1l18.4,24.6c0.8,1,0.9,2.4,0.3,3.5c-0.6,1.1-1.9,1.7-3,1.8l-30.7-0.4
			l-17.7,25.1c-0.6,0.9-1.7,1.4-2.7,1.4c-0.2,0-0.4,0-0.5,0c-1.3-0.2-2.3-1.1-2.7-2.3l-9.1-29.3l-29.3-9.1c-1.2-0.4-2.1-1.4-2.3-2.7
			c-0.2-1.3,0.3-2.5,1.4-3.3l25.1-17.7L343.2,113.8z M274.8,256.7c0-0.7,0.4-1.4,1-1.7c0.7-0.3,1.4-0.3,2,0.2l14.1,10.5l16.6-5.6
			c0.7-0.2,1.5-0.1,2,0.5c0.5,0.5,0.7,1.3,0.5,2l-5.6,16.6l10.5,14.1c0.4,0.6,0.5,1.4,0.2,2s-1.1,1.1-1.7,1l-17.6-0.2l-10.1,14.3
			c-0.4,0.5-0.9,0.8-1.6,0.8c-0.1,0-0.2,0-0.3,0c-0.7-0.1-1.3-0.6-1.5-1.3L278,293l-16.8-5.2c-0.7-0.2-1.2-0.8-1.3-1.5
			c-0.1-0.7,0.2-1.4,0.8-1.9l14.3-10.1L274.8,256.7z M392.3,329.8c-0.5,0.7-1.3,1.1-2.2,1.1c-0.1,0-0.3,0-0.4,0
			c-1-0.2-1.8-0.9-2.1-1.9l-7.3-23.5l-23.5-7.3c-1-0.3-1.7-1.1-1.9-2.1s0.3-2,1.1-2.6l20.1-14.2l-0.3-24.6c0-1,0.6-2,1.5-2.4
			c0.9-0.5,2-0.4,2.8,0.2l19.7,14.7l23.3-7.9c0.9-0.3,2-0.1,2.8,0.6c0.7,0.7,1,1.8,0.6,2.8l-7.9,23.3l14.7,19.7
			c0.6,0.8,0.7,1.9,0.2,2.8c-0.5,0.9-1.4,1.5-2.4,1.5l-24.6-0.3L392.3,329.8z"/>
	</g>
</g>
</svg>
