<?xml version="1.0" encoding="utf-8"?>
<!-- Generator: Adobe Illustrator 24.1.0, SVG Export Plug-In . SVG Version: 6.00 Build 0)  -->
<svg version="1.1" id="Capa_1" xmlns="http://www.w3.org/2000/svg" xmlns:xlink="http://www.w3.org/1999/xlink" x="0px" y="0px"
	 viewBox="0 0 587.2 587.2" style="enable-background:new 0 0 587.2 587.2;" xml:space="preserve">
<style type="text/css">
	.st0{fill:#FFFFFF;}
</style>
<g>
	<g>
		<path class="st0" d="M530.4,345.1c-3.6-1.5-7.7-0.8-10.5,2c-2.8,2.7-3.6,6.9-2.1,10.5c0.8,1.9,1,3.4,0.7,4.1
			c-0.5,0.9-3.3,3-9.6,4.1c-0.6,0.1-2,0.1-3.9,0.1c-4,0-14-0.2-30-2c9.6-22.1,14.6-46.1,14.6-70.2c0-97.2-79.1-176.4-176.4-176.4
			c-80.5,0-150,54.3-170.3,130.9c-22.9-14.9-40.7-30-52-44.1c-5.5-6.8-1.6-12.3,0.3-14.3c2.5-2.5,3.4-6.3,2.4-9.7
			c-1.1-3.4-4-5.9-7.5-6.5c-11.3-1.9-21.6-2.9-30.8-2.9c-43.3,0-51.8,20.9-53.3,26.8c-16.8,45,96,106.8,138.1,128
			c15.3,83.9,87.4,144.3,173.2,144.3c41.1,0,80.9-14.5,112.6-40.8c24.9,5.9,67,14.5,100.5,14.5c28.6,0,46.6-6.2,54.8-18.8
			c6.2-9.6,7.8-20.1,4.7-30.4C577,366,535.1,347.2,530.4,345.1z M269.4,229.7c-16.7,0-30.3-13.6-30.3-30.3s13.6-30.3,30.3-30.3
			s30.3,13.6,30.3,30.3C299.7,216.1,286.1,229.7,269.4,229.7z"/>
	</g>
</g>
</svg>
