<?xml version="1.0" encoding="utf-8"?>
<!-- Generator: Adobe Illustrator 24.1.0, SVG Export Plug-In . SVG Version: 6.00 Build 0)  -->
<svg version="1.1" id="Capa_1" xmlns="http://www.w3.org/2000/svg" xmlns:xlink="http://www.w3.org/1999/xlink" x="0px" y="0px"
	 viewBox="0 0 528.2 528.2" style="enable-background:new 0 0 528.2 528.2;" xml:space="preserve">
<style type="text/css">
	.st0{fill:#FFFFFF;}
</style>
<g>
	<g>
		<path class="st0" d="M74.9,526.3c3,2.2,6.9,2.4,10.1,0.7l99.3-52.2l99.3,52.2c1.4,0.7,2.9,1.1,4.5,1.1c2,0,3.9-0.6,5.6-1.8
			c2.9-2.1,4.4-5.8,3.8-9.4l-19-110.6l80.4-78.3c2.6-2.5,3.5-6.3,2.4-9.8c-1.1-3.5-4.1-6-7.7-6.5l-111-16.1L192.9,195
			c-3.2-6.5-13.9-6.5-17.1,0L126,295.6L15,311.7c-3.6,0.5-6.6,3.1-7.7,6.5c-1.1,3.5-0.2,7.3,2.4,9.8l80.4,78.3l-19,110.6
			C70.4,520.6,71.9,524.2,74.9,526.3z"/>
		<path class="st0" d="M520.8,398.8c-1.1-3.5-4.1-6-7.7-6.5l-45.2-6.6l-20.2-41c-1.6-3.3-4.9-5.3-8.6-5.3c-3.7,0-7,2.1-8.6,5.3
			l-20.2,41l-45.2,6.6c-3.6,0.5-6.6,3.1-7.7,6.5c-1.1,3.5-0.2,7.3,2.4,9.8l32.7,31.9l-7.7,45c-0.6,3.6,0.9,7.2,3.8,9.4
			c2.9,2.1,6.9,2.4,10.1,0.7l40.4-21.3l40.4,21.3c1.4,0.7,2.9,1.1,4.5,1.1c2,0,3.9-0.6,5.6-1.8c2.9-2.1,4.4-5.8,3.8-9.4l-7.7-45
			l32.7-31.9C521,406.1,521.9,402.3,520.8,398.8z"/>
		<path class="st0" d="M326.8,149.4c-3.2-6.5-13.9-6.5-17.1,0L295.1,179l-32.6,4.7c-3.6,0.5-6.6,3.1-7.7,6.5
			c-1.1,3.5-0.2,7.3,2.4,9.8l23.6,23l-5.6,32.5c-0.6,3.6,0.9,7.2,3.8,9.4c1.7,1.2,3.6,1.8,5.6,1.8c1.5,0,3.1-0.4,4.4-1.2l29.2-15.4
			l29.2,15.2c1.4,0.7,2.9,0.8,4.4,0.8c0.1,0,0.2,0,0.2,0c5.3,0,9.6-4,9.6-9.3c0-1.2-0.2-2.1-0.6-3.2l-5.3-30.6l23.6-23
			c2.6-2.5,3.5-6.3,2.4-9.8c-1.1-3.5-4.1-6-7.7-6.5l-32.6-4.7L326.8,149.4z"/>
		<path class="st0" d="M108,28.1c-4.4-9-19.1-9-23.6,0l-20,40.6l-44.8,6.5c-5,0.7-9.1,4.2-10.6,8.9c-1.5,4.8-0.3,10,3.3,13.5
			l32.4,31.6l-7.6,44.6c-0.8,4.9,1.2,9.9,5.2,12.8c2.3,1.7,5,2.5,7.7,2.5c2.1,0,4.2-0.6,6.1-1.6l40.1-21.2l40.1,20.9
			c1.9,1,4,1.1,6.1,1.1c0.1,0,0.2,0,0.3,0c7.3,0,13.1-5.5,13.1-12.8c0-1.7-0.3-2.9-0.9-4.4l-7.2-42.1l32.4-31.6
			c3.6-3.5,4.9-8.7,3.3-13.5c-1.6-4.8-5.7-8.2-10.6-8.9L128,68.5L108,28.1z"/>
		<path class="st0" d="M495.2,252.9c-0.6-1.7-2.1-3-3.9-3.3l-15.1-2.2l-6.7-13.6c-1.6-3.3-7-3.3-8.6,0l-6.7,13.6l-15.1,2.2
			c-1.8,0.3-3.3,1.5-3.9,3.3c-0.6,1.7-0.1,3.6,1.2,4.9l10.9,10.6l-2.6,15c-0.3,1.8,0.4,3.6,1.9,4.7s3.4,1.2,5,0.4l13.5-7.1l13.5,7.1
			c0.7,0.4,1.5,0.6,2.2,0.6c1,0,2-0.3,2.8-0.9c1.5-1.1,2.2-2.9,1.9-4.7l-2.6-15l10.9-10.6C495.3,256.6,495.8,254.7,495.2,252.9z"/>
		<path class="st0" d="M462.6,119.7c-0.9-1.6-2.7-2.4-4.5-2.3l-15.2,1.3l-9.6-11.8c-2.3-2.8-7.5-1.6-8.3,1.9l-3.5,14.8l-14.2,5.5
			c-1.7,0.7-2.9,2.2-3,4c-0.2,1.8,0.7,3.6,2.3,4.5l13,7.9l0.9,15.2c0.1,1.8,1.2,3.4,2.9,4.1c1.7,0.7,3.6,0.4,5-0.8l11.5-9.9
			l14.7,3.9c0.8,0.2,1.5,0.2,2.3,0c1-0.2,1.9-0.7,2.5-1.5c1.2-1.4,1.5-3.3,0.8-5l-5.9-14l8.2-12.8
			C463.5,123.2,463.6,121.3,462.6,119.7z"/>
		<path class="st0" d="M328.9,32.5c-1.4-2.4-4.1-3.7-6.8-3.5l-23,1.9L284.5,13c-3.5-4.3-11.4-2.4-12.7,2.9l-5.3,22.5L245,46.8
			c-2.6,1-4.4,3.4-4.6,6.1c-0.2,2.8,1.1,5.4,3.5,6.8l19.7,12l1.3,23.1c0.2,2.8,1.9,5.2,4.4,6.3s5.5,0.6,7.6-1.2l17.5-15.1l22.3,5.9
			c1.2,0.3,2.3,0.3,3.5,0.1c1.5-0.3,2.8-1.1,3.8-2.3c1.8-2.1,2.3-5,1.2-7.6l-9-21.3l12.5-19.4C330.3,37.9,330.3,34.9,328.9,32.5z"/>
		<path class="st0" d="M427.9,11.3c-0.7-1.2-2.1-1.9-3.5-1.8l-11.9,1l-7.6-9.3c-1.8-2.2-5.9-1.3-6.6,1.5l-2.7,11.6l-11.1,4.4
			c-1.3,0.5-2.3,1.8-2.4,3.2c-0.1,1.4,0.6,2.8,1.8,3.5l10.2,6.2l0.7,12c0.1,1.4,1,2.7,2.3,3.2c1.3,0.6,2.8,0.3,3.9-0.6l9.1-7.8
			l11.6,3c0.6,0.2,1.2,0.2,1.8,0c0.8-0.2,1.5-0.6,2-1.2c0.9-1.1,1.2-2.6,0.6-3.9l-4.6-11l6.5-10.1C428.7,14.1,428.7,12.5,427.9,11.3
			z"/>
	</g>
</g>
</svg>
