<?xml version="1.0" encoding="utf-8"?>
<!-- Generator: Adobe Illustrator 24.1.0, SVG Export Plug-In . SVG Version: 6.00 Build 0)  -->
<svg version="1.1" id="Capa_1" xmlns="http://www.w3.org/2000/svg" xmlns:xlink="http://www.w3.org/1999/xlink" x="0px" y="0px"
	 viewBox="0 0 587.9 587.9" style="enable-background:new 0 0 587.9 587.9;" xml:space="preserve">
<style type="text/css">
	.st0{fill:#FFFFFF;}
</style>
<g>
	<g>
		<circle class="st0" cx="388.4" cy="151.3" r="54.9"/>
		<circle class="st0" cx="97.6" cy="293.1" r="27.4"/>
		<path class="st0" d="M49.6,474.8c36.8,0,92.6-9.5,146.5-21.9c25,23.9,58.8,38.6,96.1,38.6c68.8,0,125.8-50,137.1-115.6
			c96.3-39.6,170.4-81.1,157.1-123.9c-0.1-0.3-0.2-0.6-0.3-0.9c-4.5-10.9-18.3-15.8-44.8-15.8c-46.8,0-119.9,15.2-123,15.8
			c-5,1.1-8.5,5.7-8,10.8s4.7,9.1,9.9,9.2c32.4,0.8,60.3,7.8,63.7,13.5c-3.3,7.4-25.6,21-56,36c-14.3-61.8-69.5-107.9-135.6-107.9
			c-76.9,0-139.3,62.4-139.3,139.3c0,20.9,4.8,40.7,13,58.5c-15.3,2.9-29.6,4.7-41.1,4.7c-10.8,0-16.4-1.6-19.1-2.9
			c0.7-3.3,5.5-14.7,36.5-36.2c2.8-1.8,4.6-5,4.6-8.5c0-5.5-4.4-10.1-9.9-10.1c-0.1,0-0.2,0-0.3,0c-0.3,0-0.7,0-1,0.1
			c-0.6,0.1-1.1,0.2-1.6,0.3c-11.6,2.8-103.5,26.5-127.8,66.9c-5.9,9.9-7.6,20.1-5,30.3C5.7,472.8,31,474.8,49.6,474.8z"/>
	</g>
</g>
</svg>
