<?xml version="1.0" encoding="utf-8"?>
<!-- Generator: Adobe Illustrator 24.1.0, SVG Export Plug-In . SVG Version: 6.00 Build 0)  -->
<svg version="1.1" id="Capa_1" xmlns="http://www.w3.org/2000/svg" xmlns:xlink="http://www.w3.org/1999/xlink" x="0px" y="0px"
	 viewBox="0 0 575.6 575.6" style="enable-background:new 0 0 575.6 575.6;" xml:space="preserve">
<style type="text/css">
	.st0{fill:#FFFFFF;}
</style>
<g>
	<g>
		<circle class="st0" cx="287.5" cy="287.3" r="115.5"/>
		<path class="st0" d="M572.9,283.7l-115.1-41.6l78.9-93.6c1.1-1.3,1.3-3.3,0.4-4.8c-0.9-1.5-2.6-2.3-4.4-2l-120.5,21.6l21.6-120.5
			c0.3-1.7-0.5-3.5-2-4.4c-1.5-0.9-3.4-0.7-4.8,0.4l-93.6,78.9L291.8,2.6c-1.2-3.3-6.7-3.3-7.9,0l-41.6,115.1l-93.6-78.9
			c-1.4-1.1-3.3-1.3-4.8-0.4c-1.5,0.9-2.3,2.6-2,4.4l21.6,120.5L42.9,141.7c-1.7-0.3-3.5,0.5-4.4,2c-0.9,1.5-0.7,3.4,0.4,4.8
			l78.9,93.6L2.8,283.7c-1.7,0.6-2.8,2.2-2.8,3.9s1.1,3.3,2.8,3.9l115.1,41.6L39,426.9c-1.1,1.3-1.3,3.3-0.4,4.8s2.7,2.4,4.4,2
			l120.5-21.6l-21.6,120.5c-0.3,1.7,0.5,3.5,2,4.4c1.5,0.9,3.4,0.7,4.8-0.4l93.6-78.9l41.6,115.1c0.6,1.7,2.2,2.8,3.9,2.8
			c1.8,0,3.3-1.1,3.9-2.8l41.6-115.1l93.6,78.9c1.4,1.1,3.3,1.3,4.8,0.4c1.5-0.9,2.3-2.6,2-4.4l-21.6-120.5l120.5,21.6
			c0.3,0,0.6,0,0.8,0.1c2.3-0.2,4.3-1.9,4.3-4.2c0-1.4-0.7-2.7-1.8-3.4l-78.3-92.9l115.1-41.6c1.7-0.6,2.8-2.2,2.8-3.9
			C575.6,285.9,574.5,284.3,572.9,283.7z M287.9,443.4c-83.6,0-151.4-69.6-151.4-155.5c0-85.9,67.8-155.5,151.4-155.5
			S439.3,202,439.3,287.9C439.3,373.8,371.5,443.4,287.9,443.4z"/>
	</g>
</g>
</svg>
